<svg width="26" height="28" viewBox="0 0 26 28" fill="none" xmlns="http://www.w3.org/2000/svg">
<path d="M12.3103 5.81842C12.3103 6.1996 12.6182 6.50839 12.998 6.50839C13.3778 6.50839 13.6856 6.1996 13.6856 5.81842C13.6856 5.43767 13.3778 5.12867 12.998 5.12867C12.6182 5.12867 12.3103 5.43767 12.3103 5.81842Z" fill="#8E9599"/>
<path fill-rule="evenodd" clip-rule="evenodd" d="M0.849609 22.3093C0.849609 22.3093 0.849609 25.339 4.22665 25.339H9.51562C10.6662 25.339 13.1056 27.0351 13.1056 27.0351C13.1056 27.0351 15.3334 25.339 16.4839 25.339H21.7729C25.15 25.339 25.15 22.3093 25.15 22.3093V0.0429688H0.849609V22.3093ZM3.9043 7.46806L12.998 3.82412L22.0916 7.46806H3.9043ZM21.9733 9.08913H4.02484V8.16576H21.9733V9.08913ZM3.94892 19.0567H21.8974V18.1331H20.9492V10.6193H21.3967V9.66222H19.4628V10.6193H19.911V18.1331H17.9465V10.6193H18.3942V9.66222H16.46V10.6193H16.9082V18.1331H14.9437V10.6193H15.3914V9.66222H13.4573V10.6193H13.9055V18.1331H11.9403V10.6193H12.3887V9.66222H10.4545V10.6193H10.9021V18.1331H8.93758V10.6193H9.38591V9.66222H7.45179V10.6193H7.89931V18.1331H5.93483V10.6193H6.38316V9.66222H4.44904V10.6193H4.89656V18.1331H3.94892V19.0567ZM3.01526 20.6255H22.9841V19.7021H3.01526V20.6255Z" fill="#8E9599"/>
<path d="M12.3103 5.81842C12.3103 6.1996 12.6182 6.50839 12.998 6.50839C13.3778 6.50839 13.6856 6.1996 13.6856 5.81842C13.6856 5.43767 13.3778 5.12867 12.998 5.12867C12.6182 5.12867 12.3103 5.43767 12.3103 5.81842Z" fill="#8E9599"/>
<path fill-rule="evenodd" clip-rule="evenodd" d="M0.849609 22.3093C0.849609 22.3093 0.849609 25.339 4.22665 25.339H9.51562C10.6662 25.339 13.1056 27.0351 13.1056 27.0351C13.1056 27.0351 15.3334 25.339 16.4839 25.339H21.7729C25.15 25.339 25.15 22.3093 25.15 22.3093V0.0429688H0.849609V22.3093ZM3.9043 7.46806L12.998 3.82412L22.0916 7.46806H3.9043ZM21.9733 9.08913H4.02484V8.16576H21.9733V9.08913ZM3.94892 19.0567H21.8974V18.1331H20.9492V10.6193H21.3967V9.66222H19.4628V10.6193H19.911V18.1331H17.9465V10.6193H18.3942V9.66222H16.46V10.6193H16.9082V18.1331H14.9437V10.6193H15.3914V9.66222H13.4573V10.6193H13.9055V18.1331H11.9403V10.6193H12.3887V9.66222H10.4545V10.6193H10.9021V18.1331H8.93758V10.6193H9.38591V9.66222H7.45179V10.6193H7.89931V18.1331H5.93483V10.6193H6.38316V9.66222H4.44904V10.6193H4.89656V18.1331H3.94892V19.0567ZM3.01526 20.6255H22.9841V19.7021H3.01526V20.6255Z" fill="#8E9599"/>
</svg>
