<svg width="61" height="68" viewBox="0 0 61 68" fill="none" xmlns="http://www.w3.org/2000/svg">
<path d="M8.39121 62.876C-6.19888e-05 62.876 0 55.4343 0 55.4343V0.742188H60.3808V55.4343C60.3808 55.4343 60.3808 62.876 51.9896 62.876H38.8476C35.9887 62.876 30.4531 67.0422 30.4531 67.0422C30.4531 67.0422 24.3921 62.876 21.5332 62.876H8.39121Z" fill="#F23C29"/>
<path fill-rule="evenodd" clip-rule="evenodd" d="M30.1846 10.0312L7.58887 18.9817H52.7804L30.1846 10.0312ZM30.1846 16.6245C29.2409 16.6245 28.476 15.8661 28.476 14.9298C28.476 13.9946 29.2409 13.2356 30.1846 13.2356C31.1284 13.2356 31.8933 13.9946 31.8933 14.9298C31.8933 15.8661 31.1284 16.6245 30.1846 16.6245Z" fill="white"/>
<path d="M7.88867 22.9634H52.4867V20.6953H7.88867V22.9634Z" fill="white"/>
<path d="M7.69922 47.4466H52.2973V45.178H49.9412V26.722H51.0544V24.3711H46.249V26.722H47.3613V45.178H42.4803V26.722H43.593V24.3711H38.7871V26.722H39.9004V45.178H35.0184V26.722H36.132V24.3711H31.3262V26.722H32.4385V45.178H27.5574V26.722H28.6701V24.3711H23.8643V26.722H24.9775V45.178H20.0955V26.722H21.2092V24.3711H16.4033V26.722H17.5156V45.178H12.6346V26.722H13.7473V24.3711H8.94141V26.722H10.0547V45.178H7.69922V47.4466Z" fill="white"/>
<path d="M54.9971 51.2998H5.37891V49.0317H54.9971V51.2998Z" fill="white"/>
</svg>
