<svg width="16" height="20" viewBox="0 0 16 20" fill="none" xmlns="http://www.w3.org/2000/svg">
<path d="M0.87625 18.0714C0.825001 17.0609 0.847715 16.048 0.944209 15.0408C0.943328 14.4309 1.0755 13.8281 1.3315 13.2746C1.5875 12.721 1.96118 12.23 2.42646 11.8356C3.47138 11.0724 4.70936 10.6174 5.99985 10.5224C6.59311 10.9096 7.28705 11.114 7.99547 11.1101C8.71243 11.1149 9.415 10.9089 10.0159 10.5178C13.2357 10.9026 14.8346 12.3398 15.0449 15.0408C15.18 16.0999 15.1855 17.1716 15.0614 18.2321C12.9148 19.3377 10.5282 19.8954 8.11394 19.8558C5.58639 19.9083 3.08975 19.2927 0.87625 18.0714ZM4.11994 5.56408C4.11994 2.50866 5.22933 0.93457 7.99547 0.93457C10.7616 0.93457 11.8682 2.50866 11.8682 5.56408C11.8682 8.47349 10.1334 10.1945 7.99271 10.1945C5.85199 10.1945 4.11994 8.43583 4.11994 5.56408Z" fill="#0061AE"/>
</svg>
