<svg width="120" height="121" viewBox="0 0 120 121" fill="none" xmlns="http://www.w3.org/2000/svg">
<path d="M21.5 101.035C21.5 101.162 21.5088 101.289 21.5304 101.414C22.0926 104.659 24.4509 106.963 27.3439 106.963H93.1545C96.1031 106.963 98.4962 104.57 98.4962 101.621V14.4433C98.4962 11.4947 96.1031 9.10156 93.1545 9.10156H27.3439C24.4887 9.10156 22.1545 11.3453 21.5534 13.8057C21.5143 13.966 21.5 14.1312 21.5 14.2962V101.035ZM87.1503 89.2494L80.4411 95.9587L78.486 97.9138C77.439 98.9501 75.751 98.9501 74.7147 97.9138L72.7489 95.9587L70.8259 94.1425C69.7789 93.0955 69.7789 91.4075 70.8259 90.3605L70.89 90.2964C71.937 89.2494 73.625 89.2494 74.672 90.2964L74.7944 90.4121C75.797 91.359 77.3711 91.3365 78.3463 90.3613L83.3042 85.4034C84.3512 84.3564 86.0392 84.3564 87.0862 85.4034L87.1503 85.4675C88.1973 86.5145 88.1973 88.2025 87.1503 89.2494ZM88.7956 73.4271C88.7956 74.9015 87.599 76.098 86.1247 76.098H78.5821C77.1078 76.098 75.9112 74.9015 75.9112 73.4271V73.331C75.9112 71.8566 77.1078 70.6601 78.5821 70.6601H86.1247C87.599 70.6601 88.7956 71.8566 88.7956 73.331V73.4271ZM88.7956 59.3142C88.7956 60.7885 87.599 61.9851 86.1247 61.9851H78.5821C77.1078 61.9851 75.9112 60.7885 75.9112 59.3142V59.218C75.9112 57.7437 77.1078 56.5471 78.5821 56.5471H86.1247C87.599 56.5471 88.7956 57.7437 88.7956 59.218V59.3142ZM86.1247 42.4342C87.599 42.4342 88.7956 43.6307 88.7956 45.1051V45.2012C88.7956 46.6756 87.599 47.8721 86.1247 47.8721H78.5821C77.1078 47.8721 75.9112 46.6756 75.9112 45.2012V45.1051C75.9112 43.6307 77.1078 42.4342 78.5821 42.4342H86.1247ZM43.4012 25.7679C43.4012 24.2935 44.5978 23.097 46.0721 23.097H74.4262C75.9006 23.097 77.0971 24.2935 77.0971 25.7679V25.864C77.0971 27.3384 75.9006 28.5349 74.4262 28.5349H46.0721C44.5978 28.5349 43.4012 27.3384 43.4012 25.864V25.7679ZM31.7028 45.1051C31.7028 43.6307 32.8993 42.4342 34.3737 42.4342H62.7278C64.2021 42.4342 65.3986 43.6307 65.3986 45.1051V45.2012C65.3986 46.6756 64.2021 47.8721 62.7278 47.8721H34.3737C32.8993 47.8721 31.7028 46.6756 31.7028 45.2012V45.1051ZM31.7028 59.218C31.7028 57.7437 32.8993 56.5471 34.3737 56.5471H62.7278C64.2021 56.5471 65.3986 57.7437 65.3986 59.218V59.3142C65.3986 60.7885 64.2021 61.9851 62.7278 61.9851H34.3737C32.8993 61.9851 31.7028 60.7885 31.7028 59.3142V59.218ZM31.7028 73.331C31.7028 71.8566 32.8993 70.6601 34.3737 70.6601H62.7278C64.2021 70.6601 65.3986 71.8566 65.3986 73.331V73.4271C65.3986 74.9015 64.2021 76.098 62.7278 76.098H34.3737C32.8993 76.098 31.7028 74.9015 31.7028 73.4271V73.331Z" fill="white"/>
<path d="M88.7959 73.4187C88.7959 74.893 87.5994 76.0896 86.1251 76.0896H78.5825C77.1081 76.0896 75.9116 74.893 75.9116 73.4187V73.3226C75.9116 71.8482 77.1081 70.6517 78.5825 70.6517H86.1251C87.5994 70.6517 88.7959 71.8482 88.7959 73.3226V73.4187ZM88.7959 59.3058C88.7959 60.7801 87.5994 61.9767 86.1251 61.9767H78.5825C77.1081 61.9767 75.9116 60.7801 75.9116 59.3058V59.2096C75.9116 57.7353 77.1081 56.5387 78.5825 56.5387H86.1251C87.5994 56.5387 88.7959 57.7353 88.7959 59.2096V59.3058ZM86.1251 42.4258C87.5994 42.4258 88.7959 43.6223 88.7959 45.0967V45.1928C88.7959 46.6671 87.5994 47.8637 86.1251 47.8637H78.5825C77.1081 47.8637 75.9116 46.6671 75.9116 45.1928V45.0967C75.9116 43.6223 77.1081 42.4258 78.5825 42.4258H86.1251ZM31.7031 45.0967C31.7031 43.6223 32.8997 42.4258 34.374 42.4258H62.7281C64.2024 42.4258 65.399 43.6223 65.399 45.0967V45.1928C65.399 46.6671 64.2024 47.8637 62.7281 47.8637H34.374C32.8997 47.8637 31.7031 46.6671 31.7031 45.1928V45.0967ZM31.7031 59.2096C31.7031 57.7353 32.8997 56.5387 34.374 56.5387H62.7281C64.2024 56.5387 65.399 57.7353 65.399 59.2096V59.3058C65.399 60.7801 64.2024 61.9767 62.7281 61.9767H34.374C32.8997 61.9767 31.7031 60.7801 31.7031 59.3058V59.2096ZM31.7031 73.3226C31.7031 71.8482 32.8997 70.6517 34.374 70.6517H62.7281C64.2024 70.6517 65.399 71.8482 65.399 73.3226V73.4187C65.399 74.893 64.2024 76.0896 62.7281 76.0896H34.374C32.8997 76.0896 31.7031 74.893 31.7031 73.4187V73.3226Z" fill="#AAC8E6"/>
<path d="M34.374 86.2516C32.8997 86.2516 31.7031 87.4481 31.7031 88.9224V89.0186C31.7031 90.4929 32.8997 91.6895 34.374 91.6895H54.3281C55.8024 91.6895 56.999 90.4929 56.999 89.0186V88.9224C56.999 87.4481 55.8024 86.2516 54.3281 86.2516H34.374Z" fill="#AAC8E6"/>
<path d="M35.5284 22.0117C33.7618 22.0117 32.3281 23.4454 32.3281 25.212V25.3272C32.3281 27.0938 33.7618 28.5275 35.5284 28.5275H73.8932C75.6598 28.5275 77.0935 27.0938 77.0935 25.3272V25.212C77.0935 23.4454 75.6598 22.0117 73.8932 22.0117H35.5284Z" fill="#0061AE"/>
<circle cx="80.4268" cy="91.1983" r="11.0694" fill="#0061AE"/>
<path d="M75.2129 91.6826L78.5701 95.0398L85.9497 87.6602" stroke="white" stroke-width="1.76651" stroke-linecap="round" stroke-linejoin="round"/>
</svg>
