<svg width="120" height="121" viewBox="0 0 120 121" fill="none" xmlns="http://www.w3.org/2000/svg">
<path d="M18.7383 40.2852H72.6052V52.2516L39.8944 84.3945H18.7383V40.2852Z" fill="#0061AE"/>
<path d="M9.99004 28.5325H24.6747C24.6848 28.5325 24.7051 28.5325 24.7152 28.5325C27.1678 28.5123 29.1541 26.5259 29.1744 24.0734C29.1744 24.0633 29.1744 24.043 29.1744 24.0329V9.33808C29.1744 7.98008 28.0596 7.07812 26.9043 7.07812C26.3469 7.07812 25.7895 7.28081 25.3233 7.74699L8.38882 24.6815C6.97001 26.1003 7.97331 28.5325 9.99004 28.5325Z" fill="#AAC8E6"/>
<path fill-rule="evenodd" clip-rule="evenodd" d="M56.8058 93.057H41.7482H18.8952H13.0173C10.0581 93.057 7.65625 90.6551 7.65625 87.6959V31.5516H9.52097C9.67298 31.5617 9.83513 31.5719 9.98715 31.5719H21.672H24.6718C28.837 31.5719 32.2219 28.187 32.2219 24.0218V21.022V9.33713C32.2219 9.14457 32.2118 8.95202 32.1915 8.7696V6.99609H41.7482H70.4892C73.4484 6.99609 75.8503 9.39793 75.8503 12.3572V17.9817V50.1944L47.7294 77.8371C46.1755 79.3646 46.1346 81.8563 47.6376 83.4338L56.8058 93.057ZM24.0942 74.8354H42.8326C44.2311 74.8354 45.3763 73.7004 45.3763 72.3018C45.3763 70.9033 44.2412 69.7682 42.8427 69.7682H24.0942C22.6956 69.7682 21.5606 70.9033 21.5606 72.3018C21.5606 73.7004 22.6956 74.8354 24.0942 74.8354ZM24.0942 61.904H61.5811C62.9796 61.904 64.1147 60.7689 64.1147 59.3704C64.1147 57.9719 62.9796 56.8368 61.5811 56.8368H24.0942C22.6956 56.8368 21.5606 57.9719 21.5606 59.3704C21.5606 60.7689 22.6956 61.904 24.0942 61.904ZM61.5811 43.1048H24.0942C22.6956 43.1048 21.5606 44.2398 21.5606 45.6384C21.5606 47.0369 22.6956 48.1719 24.0942 48.1719H61.5811C62.9796 48.1719 64.1147 47.0369 64.1147 45.6384C64.1147 44.2398 62.9796 43.1048 61.5811 43.1048Z" fill="white"/>
<path d="M78.0137 107.424H77.1639V104.922C77.1639 102.77 75.4175 101.023 73.2658 101.023H53.9702C51.8184 101.023 50.0721 102.77 50.0721 104.922V107.424H49.2223C47.0706 107.424 45.3242 109.17 45.3242 111.322V111.533C45.3242 113.684 47.0706 115.431 49.2223 115.431H78.0137C80.1654 115.431 81.9118 113.684 81.9118 111.533V111.322C81.9118 109.17 80.1654 107.424 78.0137 107.424Z" fill="#0061AE"/>
<path d="M80.7145 52.98L63.9605 69.7341C62.4402 71.2543 62.4402 73.7257 63.9605 75.246L71.9672 83.2527C73.4875 84.7729 75.9588 84.7729 77.4791 83.2527L94.2331 66.4986C95.7534 64.9784 95.7534 62.507 94.2331 60.9867L86.2264 52.98C84.7062 51.4598 82.2348 51.4598 80.7145 52.98Z" fill="#0061AE"/>
<path d="M57.5793 77.8396C55.3808 79.1338 54.9988 82.1509 56.7997 83.9597L63.1926 90.3525C64.9935 92.1534 68.0184 91.7714 69.3126 89.5729L71.2772 86.2361L60.9161 75.875L57.5793 77.8396Z" fill="#0061AE"/>
<path d="M100.548 58.3341C102.746 57.0399 103.128 54.0228 101.327 52.214L94.9343 45.8212C93.1333 44.0202 90.1084 44.4023 88.8143 46.6008L86.8496 49.9376L97.203 60.2909L100.548 58.3341Z" fill="#0061AE"/>
<path d="M92.895 72.3555L84.7324 80.5181L107.022 102.807C108.542 104.328 111.013 104.328 112.534 102.807L115.184 100.157C116.705 98.6364 116.705 96.165 115.184 94.6448L92.895 72.3555Z" fill="#0061AE"/>
</svg>
