<svg width="120" height="121" viewBox="0 0 120 121" fill="none" xmlns="http://www.w3.org/2000/svg">
<path d="M93.4551 57.2463L102.728 50.9465C104.089 50.0192 104.21 48.0637 102.98 46.9751L93.4551 38.5586V57.2463Z" fill="#0061AE"/>
<path d="M56.6649 11.9383L51.4336 16.5648H68.569L63.3377 11.9383C61.4326 10.255 58.57 10.255 56.6649 11.9383Z" fill="#0061AE"/>
<path d="M17.2823 50.9465L26.5556 57.2463V38.5586L17.0303 46.9751C15.7905 48.0637 15.9215 50.0293 17.2823 50.9465Z" fill="#0061AE"/>
<path d="M81.3368 69.7442C79.5295 70.9716 79.3078 73.5502 80.879 75.0681L102.497 95.9528C104.1 97.495 106.771 96.3661 106.771 94.1385V57.2267C106.771 55.2007 104.503 54.0012 102.84 55.1402L81.3368 69.7442Z" fill="#AAC8E6"/>
<path d="M17.5042 95.9528L39.1222 75.0681C40.6934 73.5502 40.4717 70.9716 38.6645 69.7442L17.1615 55.1402C15.4883 54.0012 13.2305 55.2007 13.2305 57.2267V94.1385C13.2305 96.3661 15.9016 97.495 17.5042 95.9528Z" fill="#AAC8E6"/>
<path d="M99.7439 98.1985L76.8591 76.092C75.6869 74.9596 73.8813 74.8044 72.533 75.7201L63.82 81.6376C62.6608 82.4239 61.3303 82.817 59.9998 82.817C58.6693 82.817 57.3388 82.4239 56.1796 81.6376L47.4666 75.7201C46.1183 74.8044 44.3127 74.9596 43.1405 76.092L20.2557 98.1985C18.6228 99.771 19.7416 102.533 22.0095 102.533H98.0002C100.258 102.523 101.377 99.771 99.7439 98.1985Z" fill="#AAC8E6"/>
<path d="M48.006 19.5898H34.6101C31.8282 19.5898 29.5703 21.8477 29.5703 24.6297V35.6266V35.8887V59.3038L56.9568 78.3039C57.8539 78.9793 58.9223 79.322 59.9908 79.322C61.0592 79.322 62.1276 78.9793 63.0247 78.3039L90.4112 59.3038V35.8887V35.6266V24.6297C90.4112 21.8477 88.1534 19.5898 85.3714 19.5898H71.9956H69.637H50.3647H48.006ZM43.067 53.8305C43.067 52.9939 43.7423 52.3185 44.5789 52.3185H75.4227C76.2593 52.3185 76.9347 52.9939 76.9347 53.8305C76.9347 54.6671 76.2593 55.3424 75.4227 55.3424H44.5789C43.7423 55.3424 43.067 54.6671 43.067 53.8305ZM75.4227 38.459C76.2593 38.459 76.9347 39.1343 76.9347 39.9709C76.9347 40.8076 76.2593 41.4829 75.4227 41.4829H44.5789C43.7423 41.4829 43.067 40.8076 43.067 39.9709C43.067 39.1343 43.7423 38.459 44.5789 38.459H75.4227Z" fill="white"/>
<rect x="42.7422" y="38.0977" width="34.4926" height="3.95922" rx="1.97961" fill="#0061AE"/>
<rect x="42.7422" y="51.8438" width="34.4926" height="3.95922" rx="1.97961" fill="#0061AE"/>
</svg>
