<svg width="120" height="121" viewBox="0 0 120 121" fill="none" xmlns="http://www.w3.org/2000/svg">
<path d="M68.0046 53.7305H33.8577C32.166 53.7305 30.793 55.1035 30.793 56.7952C30.793 58.4869 32.166 59.8599 33.8577 59.8599H65.1107L68.0046 53.7305Z" fill="#AAC8E6"/>
<path d="M57.93 85.7658C57.93 84.4799 56.8875 83.4375 55.6017 83.4375H33.8577C32.166 83.4375 30.793 84.8105 30.793 86.5022C30.793 88.1939 32.166 89.5669 33.8577 89.5669H55.6017C56.8875 89.5669 57.93 88.5245 57.93 87.2386V85.7658Z" fill="#0061AE"/>
<path d="M61.1457 69.0117H32.8655C31.1738 69.0117 29.8008 70.3847 29.8008 72.0764C29.8008 73.7682 31.1738 75.1412 32.8655 75.1412H61.7123C61.3724 73.6396 60.7805 72.4811 60.6798 71.4611C60.579 70.4411 60.9997 70.314 61.1457 69.0117Z" fill="#AAC8E6"/>
<path d="M15.5293 103.73C15.5293 107.031 18.2086 109.711 21.5097 109.711H53.5709H85.6321C88.9332 109.711 91.6125 107.031 91.6125 103.73V69.9055L87.2827 79.3226C86.6157 80.7809 85.5191 81.9567 84.1286 82.748L84.106 82.7593L84.0834 82.7706L71.5686 89.6102C70.8112 90.0285 69.952 90.2433 69.0815 90.2433C67.9171 90.2433 66.7753 89.8476 65.8709 89.1241C64.9212 88.3667 64.2542 87.304 64.0055 86.1056L61.688 74.9701H33.8661C32.306 74.9701 31.0399 73.704 31.0399 72.1439C31.0399 70.5838 32.306 69.3176 33.8661 69.3176H61.0888C61.2019 68.7071 61.394 68.108 61.6541 67.5427L65.283 59.6517H33.8661C32.306 59.6517 31.0399 58.3856 31.0399 56.8255C31.0399 55.2654 32.306 53.9992 33.8661 53.9992H67.8832L81.6188 24.1651L83.0267 21.1015C83.0296 21.0953 83.0371 21.0926 83.0432 21.0957C83.0494 21.0988 83.0569 21.0961 83.0598 21.0898L83.145 20.8979L86.0864 14.5182C86.2536 14.1555 86.0203 13.7305 85.6208 13.7305H53.5709H44.8886C43.796 13.7305 42.9102 14.6162 42.9102 15.7089C42.9328 15.9124 42.9441 16.1271 42.9441 16.3419V32.723C42.9441 37.3694 39.1682 41.1453 34.5218 41.1453H18.1295C17.9599 41.1453 17.779 41.134 17.6094 41.1227C16.4606 41.1227 15.5293 42.054 15.5293 43.2028V103.73ZM33.8661 83.7316H54.7806C56.3407 83.7316 57.6068 84.9977 57.6068 86.5579C57.6068 88.118 56.3407 89.3841 54.7806 89.3841H33.8661C32.306 89.3841 31.0399 88.118 31.0399 86.5579C31.0399 84.9977 32.306 83.7316 33.8661 83.7316Z" fill="white"/>
<path d="M34.5219 37.7411C37.3029 37.7411 39.5526 35.4913 39.5526 32.7103V16.3179C39.5526 14.803 38.3091 13.7969 37.0203 13.7969C36.3985 13.7969 35.7767 14.023 35.2567 14.543L16.3546 33.4451C14.7719 35.0278 15.8911 37.7411 18.1295 37.7411H34.5219Z" fill="#AAC8E6"/>
<path d="M109.903 8.66611L100.712 4.438C99.9429 4.08755 99.1402 3.91797 98.3489 3.91797C96.2122 3.91797 94.166 5.13892 93.2051 7.20775L91.2832 11.3793L110.717 20.3103L110.739 20.3217L112.661 16.1501C113.984 13.3238 112.74 9.96619 109.903 8.66611Z" fill="#0061AE"/>
<path d="M109.227 23.5767L109.318 23.4072L89.8505 14.4648L89.7713 14.6344L89.5339 15.1545L86.2441 22.2993L91.6141 24.7751L105.7 31.2416L109.227 23.5767Z" fill="#0061AE"/>
<path d="M91.6139 61.7883L104.163 34.5205L91.6139 28.7549L84.7065 25.5781L71.6265 53.9878L69.0263 59.6404L65.2617 67.8139L68.4158 69.3175L77.946 73.8396L84.616 77.005L91.6139 61.7883Z" fill="#0061AE"/>
<path d="M64.3789 71.1562C64.3902 71.2806 64.4128 71.405 64.4354 71.518L65.1477 74.9661L67.3182 85.4233C67.4991 86.2938 68.2679 86.8477 69.0818 86.8477C69.3645 86.8477 69.6584 86.7799 69.941 86.6216L82.4558 79.782C82.4784 79.7707 82.4897 79.7594 82.5123 79.7481L72.4168 74.9548L64.3789 71.1562Z" fill="#0061AE"/>
</svg>
