<svg width="120" height="121" viewBox="0 0 120 121" fill="none" xmlns="http://www.w3.org/2000/svg">
<rect x="12.1152" y="20.0938" width="92.6558" height="22.0826" rx="3.35764" fill="white"/>
<rect x="12.125" y="49" width="92.6558" height="22.0826" rx="4.01511" fill="#0061AE"/>
<rect x="33.7832" y="55.1523" width="25.9712" height="4.89288" rx="0.837069" fill="white"/>
<rect x="33.7832" y="26.2422" width="35.7177" height="4.89288" rx="0.837069" fill="#AAC8E6"/>
<rect x="33.7832" y="62.3242" width="25.293" height="2.60924" rx="0.837069" fill="#AAC8E6"/>
<rect x="33.7832" y="33.418" width="54.7856" height="2.60924" rx="0.837069" fill="#AAC8E6"/>
<circle cx="22.6494" cy="60.04" r="5.80176" fill="white"/>
<circle cx="22.6494" cy="31.1377" r="5.80176" fill="#AAC8E6"/>
<rect x="12.1152" y="77.9102" width="92.6558" height="22.0825" rx="3.35764" fill="white"/>
<rect x="33.7832" y="84.0664" width="41.7512" height="4.89289" rx="0.837069" fill="#AAC8E6"/>
<rect x="33.7832" y="91.2383" width="28.4004" height="2.60923" rx="0.837069" fill="#AAC8E6"/>
<circle cx="22.6494" cy="88.9541" r="5.80176" fill="#AAC8E6"/>
<path d="M70.269 61.1994C70.269 60.2885 69.5859 59.6055 68.6751 59.6055H63.7795C62.8687 59.6055 62.1855 60.2885 62.1855 61.1994C62.1855 62.1102 62.9825 62.7933 63.7795 62.7933H68.5613C69.5859 62.7933 70.269 62.1102 70.269 61.1994Z" fill="white"/>
<path d="M76.6467 54.7079C77.5575 54.7079 78.2406 54.0249 78.2406 53.114V48.3322C78.2406 47.4214 77.5575 46.7383 76.6467 46.7383C75.7358 46.7383 75.0527 47.4214 75.0527 48.3322V53.114C75.0527 54.0249 75.7358 54.7079 76.6467 54.7079Z" fill="white"/>
<path d="M69.9279 65.8639L66.5123 69.2795C65.8292 69.9626 65.8292 70.8734 66.5123 71.5565C67.1954 72.2396 68.1063 72.2396 68.7894 71.5565L72.2049 68.1409C72.888 67.4578 72.888 66.547 72.2049 65.8639C71.5218 65.1808 70.611 65.1808 69.9279 65.8639Z" fill="white"/>
<path d="M83.5902 56.6424L87.0057 53.2269C87.6888 52.5438 87.6888 51.6329 87.0057 50.9498C86.3226 50.2667 85.4118 50.2667 84.7287 50.9498L81.3131 54.3654C80.63 55.0485 80.63 55.9593 81.3131 56.6424C81.9962 57.3256 83.0209 57.3256 83.5902 56.6424Z" fill="white"/>
<path d="M68.7894 50.9498C68.1063 50.2667 67.1954 50.2667 66.5123 50.9498C65.8292 51.6329 65.8292 52.5438 66.5123 53.2269L69.9279 56.6424C70.611 57.3256 71.5218 57.3256 72.2049 56.6424C72.888 55.9593 72.888 54.8208 72.2049 54.3654L68.7894 50.9498Z" fill="white"/>
<path d="M97.8226 81.9172L105.706 91.7964C106.321 92.5669 106.199 93.6891 105.433 94.3093L104.426 95.1241L103.207 96.0784C102.432 96.6848 101.313 96.5538 100.699 95.7846L92.8132 85.9021L89.6253 93.8717C89.3976 94.5548 88.7145 94.8964 88.1452 94.8964C87.4621 94.8964 86.8929 94.5549 86.6651 93.7579L76.4185 62.5624C76.0769 61.4239 76.8739 60.3992 77.8985 60.3992C78.1262 60.3992 78.4678 60.5131 78.6955 60.6269L108.183 76.7939C109.549 77.477 109.208 79.4125 107.728 79.754L97.8226 81.9172Z" fill="#E4F0FC" stroke="#E4F0FC" stroke-width="3.58744"/>
<g clip-path="url(#clip0)">
<path d="M97.8226 82.4016L105.706 92.2808C106.321 93.0513 106.199 94.1735 105.433 94.7937L104.426 95.6084L103.207 96.5627C102.432 97.1692 101.313 97.0381 100.699 96.269L92.8132 86.3865L89.6253 94.3561C89.3976 95.0392 88.7145 95.3808 88.1452 95.3808C87.4621 95.3808 86.8929 95.0392 86.6651 94.2423L76.4185 63.0468C76.0769 61.9083 76.8739 60.8836 77.8985 60.8836C78.1262 60.8836 78.4678 60.9974 78.6955 61.1113L108.183 77.2783C109.549 77.9614 109.208 79.8969 107.728 80.2384L97.8226 82.4016Z" fill="#0061AE" stroke="#0061AE" stroke-width="4.78325"/>
</g>
<path d="M97.8184 81.9165L105.702 91.7956C106.317 92.5661 106.194 93.6884 105.428 94.3086L104.422 95.1233L103.202 96.0776C102.428 96.6841 101.309 96.553 100.695 95.7839L92.8089 85.9013L89.6211 93.871C89.3934 94.5541 88.7102 94.8957 88.141 94.8957C87.4579 94.8957 86.8886 94.5541 86.6609 93.7571L76.4142 62.5617C76.0727 61.4231 76.8696 60.3984 77.8943 60.3984C78.122 60.3984 78.4636 60.5123 78.6913 60.6262L108.179 76.7932C109.545 77.4763 109.204 79.4117 107.724 79.7533L97.8184 81.9165Z" fill="white"/>
<defs>
<clipPath id="clip0">
<rect x="66.3809" y="55.4844" width="38.4" height="15.6" rx="4.01793" fill="white"/>
</clipPath>
</defs>
</svg>
