<svg width="120" height="121" viewBox="0 0 120 121" fill="none" xmlns="http://www.w3.org/2000/svg">
<path d="M82.8268 32.8203H36.9749C35.046 32.8203 33.4824 34.3839 33.4824 36.3128V95.5679C33.4824 97.4967 35.046 99.0603 36.9749 99.0603H72.5182C74.4471 99.0603 76.0107 97.4967 76.0107 95.5679V92.7585C76.0107 90.8297 77.5743 89.2661 79.5031 89.2661H82.8268C84.7556 89.2661 86.3192 87.7025 86.3192 85.7737V36.3128C86.3192 34.3839 84.7556 32.8203 82.8268 32.8203Z" fill="white"/>
<path d="M91.8216 19.957H87.0604C87.0604 20.0613 87.072 20.1656 87.072 20.2698V23.5019C87.072 24.7646 86.8171 25.9694 86.3537 27.0699H87.4658C89.3888 27.0699 90.9412 28.6222 90.9412 30.5452V85.7567H81.5693C76.1942 85.7567 71.8152 90.1356 71.8152 95.5108V105.126H60.0107H32.5439C30.6209 105.126 29.0686 103.574 29.0686 101.651V30.5452C29.0686 28.6222 30.6209 27.0699 32.5439 27.0699H33.656C33.1927 25.9694 32.9378 24.7646 32.9378 23.5019V20.2698C32.9378 20.1656 32.9378 20.0613 32.9494 19.957H28.1882C24.7824 19.957 22.0137 22.7257 22.0137 26.1315V105.747C22.0137 109.153 24.7824 111.922 28.1882 111.922H91.81C95.2158 111.922 97.9845 109.153 97.9845 105.747V26.1315C97.9961 22.7141 95.2274 19.957 91.8216 19.957ZM77.619 103.585V95.5108C77.619 93.3214 79.3915 91.5489 81.5809 91.5489H89.4699L77.619 103.585Z" fill="#AAC8E6"/>
<path d="M64.7111 7.1875H55.3045C52.1072 7.1875 49.5123 9.78242 49.5123 12.9797V14.4741H42.2141C39.1211 14.4741 36.5956 16.8953 36.4335 19.9536C36.4335 20.0578 36.4219 20.1621 36.4219 20.2663V23.4984C36.4219 24.8422 36.8853 26.0817 37.6498 27.0664C38.7156 28.4218 40.3606 29.2906 42.2141 29.2906H77.8015C79.655 29.2906 81.3 28.4218 82.3658 27.0664C83.142 26.0817 83.5938 24.8422 83.5938 23.4984V20.2663C83.5938 20.1621 83.5938 20.0578 83.5822 19.9536C83.42 16.8953 80.8946 14.4741 77.8015 14.4741H70.5033V12.9797C70.5033 9.78242 67.9084 7.1875 64.7111 7.1875ZM60.0078 12.2383C62.1162 12.2383 63.8307 13.9528 63.8307 16.0612C63.8307 18.1696 62.1162 19.8841 60.0078 19.8841C57.8994 19.8841 56.1849 18.1696 56.1849 16.0612C56.1849 13.9528 57.8994 12.2383 60.0078 12.2383Z" fill="#0061AE"/>
<rect x="42.7539" y="43.1562" width="34.4926" height="3.95921" rx="1.97961" fill="#0061AE"/>
<rect x="42.7539" y="53.9766" width="34.4926" height="3.95922" rx="1.97961" fill="#0061AE"/>
<rect x="42.7539" y="64.7969" width="26.6231" height="3.95921" rx="1.9796" fill="#0061AE"/>
</svg>
