<svg width="27" height="24" viewBox="0 0 27 24" fill="none" xmlns="http://www.w3.org/2000/svg">
<rect x="0.824219" y="3.58789" width="28.596" height="20.3597" rx="4" fill="#0061AE"/>
<path d="M9.02654 8.67773C6.20624 8.67773 3.91992 10.7001 3.91992 13.1951C3.91992 14.4749 4.52296 15.6272 5.48966 16.4497C5.2242 17.5744 3.88003 18.0378 3.96749 18.357C4.8191 18.8465 7.10696 17.9135 7.85116 17.5867C8.22863 17.6665 8.62145 17.7125 9.02654 17.7125C11.8468 17.7125 14.1332 15.6901 14.1332 13.1951C14.1332 10.7001 11.8468 8.67773 9.02654 8.67773ZM9.78302 15.5183C9.59122 15.5981 9.14469 15.8037 8.73346 15.8037C8.35292 15.8037 7.83428 15.6288 7.83428 15.0671C7.83428 14.4165 8.29461 13.4897 8.29461 12.9527C8.29461 12.3543 7.51665 12.678 7.45988 12.6995L7.53813 12.3803C7.72994 12.3021 8.18567 12.0949 8.58923 12.0949C8.91606 12.0949 9.47306 12.2131 9.47306 12.8315C9.47306 13.4529 9.01273 14.4472 9.01273 14.9459C9.01273 15.084 8.99432 15.3019 9.42396 15.3019C9.59122 15.3019 9.82138 15.2175 9.86281 15.1991L9.78302 15.5183ZM9.2383 11.5042C8.96056 11.5042 8.53859 11.3139 8.53859 10.8536C8.53859 10.3871 8.98818 10.1984 9.2383 10.1984C9.53444 10.1984 9.93647 10.4147 9.93647 10.8536C9.93647 11.119 9.72778 11.5042 9.2383 11.5042Z" fill="white"/>
<path d="M17.6172 12.1875L20.416 14.9858L23.2144 12.1875" stroke="white"/>
</svg>
