<svg width="21" height="21" viewBox="0 0 21 21" fill="none" xmlns="http://www.w3.org/2000/svg">
<path d="M5.73921 0.140625C5.26999 0.140625 4.95922 0.451401 4.95922 0.920612V3.26057C4.95922 3.72978 5.26999 4.04056 5.73921 4.04056C6.20842 4.04056 6.51919 3.72978 6.51919 3.26057V0.920612C6.51919 0.451401 6.20842 0.140625 5.73921 0.140625ZM15.099 0.140625C14.6298 0.140625 14.3191 0.451401 14.3191 0.920612V3.26057C14.3191 3.72978 14.6298 4.04056 15.099 4.04056C15.5683 4.04056 15.879 3.72978 15.879 3.26057V0.920612C15.879 0.451401 15.5683 0.140625 15.099 0.140625ZM2.61926 1.7006C1.29389 1.7006 0.279297 2.71519 0.279297 4.04056V18.0803C0.279297 19.4057 1.29389 20.4203 2.61926 20.4203H18.219C19.5444 20.4203 20.559 19.4057 20.559 18.0803V4.04056C20.559 2.71519 19.5444 1.7006 18.219 1.7006H16.659V3.26057C16.659 4.11978 15.9583 4.82055 15.099 4.82055C14.2398 4.82055 13.5391 4.11978 13.5391 3.26057V1.7006H7.29918V3.26057C7.29918 4.11978 6.59841 4.82055 5.73921 4.82055C4.88 4.82055 4.17923 4.11978 4.17923 3.26057V1.7006H2.61926ZM1.83927 7.16051H18.999V18.0803C18.999 18.5495 18.6882 18.8603 18.219 18.8603H2.61926C2.15005 18.8603 1.83927 18.5495 1.83927 18.0803V7.16051ZM13.6609 8.7936C13.472 8.76009 13.2801 8.86064 13.2222 9.03735L9.39539 14.7166L7.61605 12.9373C7.46066 12.7819 7.14379 12.7819 6.90919 12.9373L6.20232 13.6441C6.04693 13.7995 6.04693 14.092 6.20232 14.3266L8.93228 17.0566C9.08766 17.212 9.33141 17.3003 9.56602 17.3003C9.80062 17.3003 10.023 17.1389 10.1023 16.9835L14.7091 10.2073C14.8644 9.89656 14.7913 9.58273 14.6359 9.42734L13.8559 8.86673C13.7981 8.82712 13.7249 8.80579 13.6609 8.7936Z" fill="#0061AE"/>
</svg>
