<svg width="15" height="20" viewBox="0 0 15 20" fill="none" xmlns="http://www.w3.org/2000/svg">
<path d="M0.296171 17.9552C0.244923 16.9447 0.267637 15.9318 0.364131 14.9246C0.363249 14.3147 0.495418 13.7119 0.751421 13.1584C1.00742 12.6048 1.3811 12.1137 1.84638 11.7194C2.8913 10.9562 4.12928 10.5012 5.41977 10.4062C6.01303 10.7934 6.70697 10.9977 7.41539 10.9939C8.13236 10.9987 8.83492 10.7927 9.43581 10.4016C12.6556 10.7864 14.2545 12.2236 14.4648 14.9246C14.5999 15.9837 14.6055 17.0554 14.4813 18.1159C12.3347 19.2215 9.94812 19.7792 7.53386 19.7396C5.00631 19.7921 2.50967 19.1765 0.296171 17.9552ZM3.53986 5.44787C3.53986 2.39245 4.64925 0.818359 7.41539 0.818359C10.1815 0.818359 11.2882 2.39245 11.2882 5.44787C11.2882 8.35728 9.55336 10.0783 7.41264 10.0783C5.27191 10.0783 3.53986 8.31962 3.53986 5.44787Z" fill="#0061AE"/>
</svg>
