<svg width="25" height="22" viewBox="0 0 25 22" fill="none" xmlns="http://www.w3.org/2000/svg">
<path fill-rule="evenodd" clip-rule="evenodd" d="M12.419 0.0703125L0.814453 4.66702H24.0235L12.419 0.0703125ZM12.419 3.45643C11.9343 3.45643 11.5415 3.0669 11.5415 2.58606C11.5415 2.10575 11.9343 1.71596 12.419 1.71596C12.9036 1.71596 13.2965 2.10575 13.2965 2.58606C13.2965 3.0669 12.9036 3.45643 12.419 3.45643Z" fill="#0061AE"/>
<path d="M0.968424 6.71186H23.8726V5.54706H0.968424V6.71186Z" fill="#0061AE"/>
<path d="M0.871126 19.2857H23.7753V18.1206H22.5653V8.64219H23.137V7.43483H20.6692V8.64219H21.2404V18.1206H18.7336V8.64219H19.3051V7.43483H16.8369V8.64219H17.4087V18.1206H14.9014V8.64219H15.4734V7.43483H13.0052V8.64219H13.5765V18.1206H11.0697V8.64219H11.6412V7.43483H9.17301V8.64219H9.74476V18.1206H7.23749V8.64219H7.80944V7.43483H5.34129V8.64219H5.91254V18.1206H3.40577V8.64219H3.97723V7.43483H1.50908V8.64219H2.08082V18.1206H0.871126V19.2857Z" fill="#0061AE"/>
<path d="M23.7753 21.2646H0.872147V20.0998H23.7753V21.2646Z" fill="#0061AE"/>
</svg>
