<svg width="25" height="24" viewBox="0 0 25 24" fill="none" xmlns="http://www.w3.org/2000/svg">
<path d="M12.5 0.644531C5.8726 0.644531 0.5 5.39694 0.5 11.2599C0.5 14.2671 1.91707 16.9751 4.1887 18.9078C3.5649 21.5508 0.40625 22.6397 0.611779 23.3897C2.61298 24.54 7.98918 22.3477 9.73798 21.5796C10.625 21.7671 11.5481 21.8753 12.5 21.8753C19.1274 21.8753 24.5 17.1229 24.5 11.2599C24.5 5.39694 19.1274 0.644531 12.5 0.644531ZM14.2776 16.7191C13.8269 16.9066 12.7776 17.3897 11.8113 17.3897C10.9171 17.3897 9.69832 16.9787 9.69832 15.659C9.69832 14.1301 10.78 11.9522 10.78 10.6902C10.78 9.28395 8.95192 10.0448 8.81851 10.0953L9.00241 9.34525C9.45313 9.16136 10.524 8.67458 11.4724 8.67458C12.2404 8.67458 13.5493 8.95222 13.5493 10.4053C13.5493 11.8657 12.4675 14.2022 12.4675 15.3741C12.4675 15.6986 12.4243 16.2106 13.4339 16.2106C13.8269 16.2106 14.3678 16.0123 14.4651 15.9691L14.2776 16.7191ZM12.9976 7.28636C12.345 7.28636 11.3534 6.83924 11.3534 5.75751C11.3534 4.66136 12.4099 4.21785 12.9976 4.21785C13.6935 4.21785 14.6382 4.72626 14.6382 5.75751C14.6382 6.38131 14.1478 7.28636 12.9976 7.28636Z" fill="#000000"/>
</svg>
