<?xml version="1.0" encoding="utf-8"?><svg xmlns="http://www.w3.org/2000/svg" xmlns:xlink="http://www.w3.org/1999/xlink"><symbol viewBox="0 0 16 29" id="arrowLeft" xmlns="http://www.w3.org/2000/svg"><path d="M14.984 1.543L1.97 14.558l13.015 13.016"/></symbol><symbol viewBox="0 0 16 29" id="arrowRight" xmlns="http://www.w3.org/2000/svg"><path d="M.984 1.543L14 14.558.984 27.574"/></symbol><symbol viewBox="0 0 16 13" id="check" xmlns="http://www.w3.org/2000/svg"><path d="M.24 6.64l4.853 4.853L15.759.826"/></symbol><symbol viewBox="0 0 17 17" id="close" xmlns="http://www.w3.org/2000/svg"><path d="M16.146.893L.857 16.183m15.288.001L.854.894"/></symbol><symbol viewBox="0 0 24 25" id="docs" xmlns="http://www.w3.org/2000/svg"><path fill-rule="evenodd" clip-rule="evenodd" d="M6 2.004h8l6 6v12c0 1.1-.9 2-2 2H5.99c-1.1 0-1.99-.9-1.99-2l.01-16c0-1.1.89-2 1.99-2zm0 2v16h12v-11h-5v-5H6z"/></symbol><symbol viewBox="0 0 18 10" id="down" xmlns="http://www.w3.org/2000/svg"><path d="M17 1.133l-8 8-8-8"/></symbol><symbol viewBox="0 0 24 25" id="email" xmlns="http://www.w3.org/2000/svg"><path fill-rule="evenodd" clip-rule="evenodd" d="M1.786 6.848l9.338 6.052a1.655 1.655 0 001.8 0l9.299-6.027a1.242 1.242 0 00-1.175-.84H2.952c-.536 0-.992.34-1.166.815zm20.503 1.954l-8.465 5.487a3.31 3.31 0 01-3.6 0L1.71 8.772v9.724c0 .685.556 1.24 1.241 1.24h18.096a1.24 1.24 0 001.241-1.24V8.802z"/></symbol><symbol viewBox="0 0 11 20" id="file" xmlns="http://www.w3.org/2000/svg"><path d="M9.092 5.238V15.1a3.43 3.43 0 01-3.431 3.431 3.43 3.43 0 01-3.431-3.43V4.38a2.145 2.145 0 014.288 0v9.006a.86.86 0 01-.857.858.86.86 0 01-.858-.858V5.238H3.516v8.148a2.145 2.145 0 004.289 0V4.38A3.43 3.43 0 004.375.95 3.43 3.43 0 00.942 4.38v10.721a4.715 4.715 0 004.718 4.718 4.715 4.715 0 004.717-4.718V5.238H9.092z"/></symbol><symbol viewBox="0 0 13 16" id="location" xmlns="http://www.w3.org/2000/svg"><path fill-rule="evenodd" clip-rule="evenodd" d="M.47 6.056c0-3.124 2.693-5.665 6-5.665 3.309 0 6 2.54 6 5.665 0 4.44-5.435 9.023-5.667 9.216a.522.522 0 01-.665 0C5.907 15.079.471 10.496.471 6.056zm2.667-.04c0 1.723 1.496 3.125 3.334 3.125s3.333-1.402 3.333-3.125S8.309 2.89 6.471 2.89 3.137 4.293 3.137 6.016z"/></symbol><symbol viewBox="0 0 18 21" id="lock" xmlns="http://www.w3.org/2000/svg"><path fill-rule="evenodd" clip-rule="evenodd" d="M9 .008a5.384 5.384 0 00-5.384 5.384v3.064H3.2a2.788 2.788 0 00-2.788 2.788v6.305A2.788 2.788 0 003.2 20.337h11.6a2.788 2.788 0 002.787-2.788v-6.305A2.788 2.788 0 0014.8 8.456h-.417V5.392A5.384 5.384 0 009 .008zm0 1.787a3.596 3.596 0 00-3.597 3.597v3.064h7.193V5.392a3.596 3.596 0 00-3.597-3.597zm1.704 12.259c0 .675-.392 1.258-.96 1.534v1.722a.744.744 0 11-1.488 0v-1.722a1.705 1.705 0 112.448-1.534z"/></symbol><symbol viewBox="0 0 24 25" id="phone" xmlns="http://www.w3.org/2000/svg"><path d="M16.603 1.07H7.397c-.881 0-1.592.715-1.592 1.594v18.694c0 .879.71 1.592 1.592 1.592h9.206c.88 0 1.592-.713 1.592-1.592V2.664c0-.88-.713-1.594-1.592-1.594zm-6.875.968h4.545c.115 0 .208.172.208.384 0 .212-.093.384-.208.384H9.728c-.115 0-.207-.172-.207-.384 0-.212.092-.384.207-.384zm2.273 19.9a1.017 1.017 0 110-2.033 1.017 1.017 0 010 2.033zm5.001-3.647a1 1 0 01-1 1H7.998a1 1 0 01-1-1V4.76a1 1 0 011-1h8.004a1 1 0 011 1v13.53z"/></symbol><symbol viewBox="0 0 16 20" id="user" xmlns="http://www.w3.org/2000/svg"><path d="M.876 18.071a20.755 20.755 0 01.068-3.03 4.193 4.193 0 011.482-3.205A6.92 6.92 0 016 10.522a3.615 3.615 0 001.995.588 3.659 3.659 0 002.02-.592c3.22.385 4.82 1.822 5.03 4.523.135 1.059.14 2.13.016 3.191a14.648 14.648 0 01-6.947 1.624A14.365 14.365 0 01.876 18.07zM4.12 5.564c0-3.055 1.11-4.63 3.875-4.63 2.767 0 3.873 1.575 3.873 4.63 0 2.91-1.735 4.63-3.875 4.63-2.141 0-3.873-1.758-3.873-4.63z"/></symbol></svg>